<svg width="82" height="24" viewBox="0 0 82 24" fill="none" xmlns="http://www.w3.org/2000/svg">
<path d="M81.8977 22.6493L74.1037 22.6756L66.4196 13.2626L66.6213 22.6656H60.5752V7.73343L66.3978 7.69528L66.3405 9.97199L74.0846 1.63281L81.3062 1.65462L71.6707 11.2303L81.8977 22.6493Z" fill="#8B32FE"/>
<path d="M59.3197 7.73877H53.936V22.7082H59.3197V7.73877Z" fill="#8B32FE"/>
<path d="M57.0963 3.18176C57.0963 1.60732 58.2773 0.392647 60.0634 0.393555C61.8495 0.394464 63.0288 1.52828 63.0278 3.1C63.0278 4.75711 61.8468 5.97179 60.0607 5.97088C58.2746 5.96997 57.0953 4.7562 57.0963 3.18176Z" fill="#8B32FE"/>
<path d="M52.9412 14.1449V22.7076H47.5583V15.0016C47.5583 12.8476 46.5962 11.9354 45.0391 11.9345C43.3129 11.9345 41.9783 12.9829 41.9774 15.4686L41.9729 22.7049H36.5891L36.5973 7.73449L41.7285 7.73358V9.36344C42.9468 8.12151 44.6757 7.48737 46.6026 7.48828C50.1966 7.48737 52.9439 9.50517 52.9412 14.1449Z" fill="#8B32FE"/>
<path d="M5.73362 7.70996H0.349854V22.6794H5.73362V7.70996Z" fill="#8B32FE"/>
<path d="M14.0745 8.13037C16.1141 8.13037 18.4353 8.76633 19.8817 10.2881L17.8112 13.4906C16.9618 12.6893 15.659 12.1078 14.3834 12.1078C12.0613 12.1078 10.8984 13.8176 10.8975 15.5029C10.8966 17.1882 12.0858 19.0388 14.5506 19.0397C15.966 19.0397 17.4978 18.213 18.548 17.3299L20.3314 20.6732C18.8851 22.1087 16.5048 23.0181 14.0682 23.0172C8.85522 23.0172 5.93984 19.474 5.94257 15.5556C5.93894 11.7435 8.83251 8.12765 14.0745 8.13037Z" fill="#8B32FE"/>
<path d="M19.1413 15.1755C19.1413 10.6739 22.8007 7.4714 27.8166 7.47412C32.8869 7.47412 36.4827 10.683 36.48 15.1855C36.48 19.7144 32.8778 22.9442 27.8075 22.9414C22.7926 22.9387 19.1386 19.7053 19.1413 15.1755ZM31.0426 15.1819C31.0426 12.917 29.6572 11.646 27.8166 11.6451C25.9996 11.6451 24.585 12.917 24.5832 15.1783C24.5832 17.4713 25.9996 18.7696 27.8129 18.7705C29.6481 18.7723 31.039 17.475 31.0399 15.1828L31.0426 15.1819Z" fill="#8B32FE"/>
<path d="M0.317872 3.18176C0.317872 1.60732 1.49892 0.392647 3.28503 0.393555C5.07114 0.394464 6.24946 1.52828 6.24856 3.1C6.24856 4.75711 5.06751 5.97179 3.28231 5.97088C1.4971 5.96997 0.316963 4.7562 0.317872 3.18176Z" fill="#8B32FE"/>
</svg>
